<?xml version="1.0" standalone="no"?>
<!DOCTYPE svg PUBLIC "-//W3C//DTD SVG 1.1//EN" "http://www.w3.org/Graphics/SVG/1.1/DTD/svg11.dtd">
<svg xmlns="http://www.w3.org/2000/svg" version="1.1">
<line  x1="87" y1="50" x2="162" y2="50" stroke="#000000" stroke-width="1" fill="none"/>
<line  x1="125" y1="50" x2="125" y2="65" stroke="#000000" stroke-width="1" fill="none"/>
<text  x="117" y="48" style="font-size:12; font-family:Dialog.plain; fill=#000000">CA</text>
<text  x="10" y="73" style="font-size:12; font-family:Dialog.plain; fill=#000000">@0</text>
<rect  x="92" y="65" width="66" height="20" rx="5" ry="5" fill="#ffffff"/>
<rect  x="92" y="65" width="66" height="20" rx="5" ry="5" fill="none" stroke="#000000" stroke-width="1"/>
<text  x="94" y="81" style="font-size:12; font-family:Dialog.plain; fill=#7710f3">speed = 30</text>
<line  x1="125" y1="85" x2="125" y2="95" stroke="#000000" stroke-width="1" fill="none"/>
<line  x1="125" y1="95" x2="125" y2="105" stroke="#000000" stroke-width="1" fill="none"/>
<rect  x="104" y="105" width="42" height="20" rx="5" ry="5" fill="#c1daf1"/>
<rect  x="104" y="105" width="42" height="20" rx="5" ry="5" fill="none" stroke="#000000" stroke-width="1"/>
<text  x="106" y="121" style="font-size:12; font-family:Dialog.plain; fill=#000000">Driving</text>
<line  x1="125" y1="125" x2="125" y2="135" stroke="#000000" stroke-width="1" fill="none"/>
<line  x1="125" y1="135" x2="125" y2="145" stroke="#000000" stroke-width="1" fill="none"/>
<rect  x="86" y="145" width="78" height="20" rx="5" ry="5" fill="#ffffff"/>
<rect  x="86" y="145" width="78" height="20" rx="5" ry="5" fill="none" stroke="#000000" stroke-width="1"/>
<text  x="88" y="161" style="font-size:12; font-family:Dialog.plain; fill=#000000">distance = 47</text>
<line  x1="125" y1="165" x2="125" y2="175" stroke="#000000" stroke-width="1" fill="none"/>
<line  x1="125" y1="175" x2="125" y2="185" stroke="#000000" stroke-width="1" fill="none"/>
<rect  x="95" y="185" width="61" height="20" rx="5" ry="5" fill="#c1daf1"/>
<rect  x="95" y="185" width="61" height="20" rx="5" ry="5" fill="none" stroke="#000000" stroke-width="1"/>
<text  x="97" y="201" style="font-size:12; font-family:Dialog.plain; fill=#000000">choice__0</text>
<line  x1="125" y1="205" x2="125" y2="215" stroke="#000000" stroke-width="1" fill="none"/>
<rect  x="96" y="215" width="59" height="20" rx="5" ry="5" fill="#ffffff"/>
<rect  x="96" y="215" width="59" height="20" rx="5" ry="5" fill="none" stroke="#000000" stroke-width="1"/>
<text  x="98" y="231" style="font-size:12; font-family:Dialog.plain; fill=#7710f3">speed = 0</text>
<line  x1="125" y1="235" x2="125" y2="245" stroke="#000000" stroke-width="1" fill="none"/>
<line  x1="125" y1="245" x2="125" y2="255" stroke="#000000" stroke-width="1" fill="none"/>
<rect  x="104" y="255" width="43" height="20" rx="5" ry="5" fill="#c1daf1"/>
<rect  x="104" y="255" width="43" height="20" rx="5" ry="5" fill="none" stroke="#000000" stroke-width="1"/>
<text  x="106" y="271" style="font-size:12; font-family:Dialog.plain; fill=#000000">waiting</text>
<line  x1="125" y1="275" x2="125" y2="285" stroke="#000000" stroke-width="1" fill="none"/>
<line  x1="125" y1="285" x2="125" y2="295" stroke="#000000" stroke-width="1" fill="none"/>
<rect  x="86" y="295" width="78" height="20" rx="5" ry="5" fill="#ffffff"/>
<rect  x="86" y="295" width="78" height="20" rx="5" ry="5" fill="none" stroke="#000000" stroke-width="1"/>
<text  x="88" y="311" style="font-size:12; font-family:Dialog.plain; fill=#000000">distance = 46</text>
<line  x1="125" y1="315" x2="125" y2="325" stroke="#000000" stroke-width="1" fill="none"/>
<line  x1="125" y1="325" x2="125" y2="335" stroke="#000000" stroke-width="1" fill="none"/>
<rect  x="95" y="335" width="61" height="20" rx="5" ry="5" fill="#c1daf1"/>
<rect  x="95" y="335" width="61" height="20" rx="5" ry="5" fill="none" stroke="#000000" stroke-width="1"/>
<text  x="97" y="351" style="font-size:12; font-family:Dialog.plain; fill=#000000">choice__1</text>
<line  x1="125" y1="355" x2="125" y2="365" stroke="#000000" stroke-width="1" fill="none"/>
<rect  x="96" y="365" width="59" height="20" rx="5" ry="5" fill="#ffffff"/>
<rect  x="96" y="365" width="59" height="20" rx="5" ry="5" fill="none" stroke="#000000" stroke-width="1"/>
<text  x="98" y="381" style="font-size:12; font-family:Dialog.plain; fill=#7710f3">speed = 0</text>
<line  x1="125" y1="385" x2="125" y2="395" stroke="#000000" stroke-width="1" fill="none"/>
<line  x1="125" y1="395" x2="125" y2="405" stroke="#000000" stroke-width="1" fill="none"/>
<rect  x="104" y="405" width="43" height="20" rx="5" ry="5" fill="#c1daf1"/>
<rect  x="104" y="405" width="43" height="20" rx="5" ry="5" fill="none" stroke="#000000" stroke-width="1"/>
<text  x="106" y="421" style="font-size:12; font-family:Dialog.plain; fill=#000000">waiting</text>
<line  x1="125" y1="425" x2="125" y2="435" stroke="#000000" stroke-width="1" fill="none"/>
<line  x1="125" y1="435" x2="125" y2="445" stroke="#000000" stroke-width="1" fill="none"/>
<rect  x="86" y="445" width="78" height="20" rx="5" ry="5" fill="#ffffff"/>
<rect  x="86" y="445" width="78" height="20" rx="5" ry="5" fill="none" stroke="#000000" stroke-width="1"/>
<text  x="88" y="461" style="font-size:12; font-family:Dialog.plain; fill=#000000">distance = 53</text>
<line  x1="125" y1="465" x2="125" y2="475" stroke="#000000" stroke-width="1" fill="none"/>
<line  x1="125" y1="475" x2="125" y2="485" stroke="#000000" stroke-width="1" fill="none"/>
<rect  x="95" y="485" width="61" height="20" rx="5" ry="5" fill="#c1daf1"/>
<rect  x="95" y="485" width="61" height="20" rx="5" ry="5" fill="none" stroke="#000000" stroke-width="1"/>
<text  x="97" y="501" style="font-size:12; font-family:Dialog.plain; fill=#000000">choice__1</text>
<line  x1="125" y1="505" x2="125" y2="515" stroke="#000000" stroke-width="1" fill="none"/>
<rect  x="92" y="515" width="66" height="20" rx="5" ry="5" fill="#ffffff"/>
<rect  x="92" y="515" width="66" height="20" rx="5" ry="5" fill="none" stroke="#000000" stroke-width="1"/>
<text  x="94" y="531" style="font-size:12; font-family:Dialog.plain; fill=#7710f3">speed = 30</text>
<line  x1="125" y1="535" x2="125" y2="545" stroke="#000000" stroke-width="1" fill="none"/>
<line  x1="125" y1="545" x2="125" y2="555" stroke="#000000" stroke-width="1" fill="none"/>
<rect  x="104" y="555" width="42" height="20" rx="5" ry="5" fill="#c1daf1"/>
<rect  x="104" y="555" width="42" height="20" rx="5" ry="5" fill="none" stroke="#000000" stroke-width="1"/>
<text  x="106" y="571" style="font-size:12; font-family:Dialog.plain; fill=#000000">Driving</text>
<line  x1="125" y1="575" x2="125" y2="585" stroke="#000000" stroke-width="1" fill="none"/>
<line  x1="125" y1="585" x2="125" y2="595" stroke="#000000" stroke-width="1" fill="none"/>
<rect  x="86" y="595" width="78" height="20" rx="5" ry="5" fill="#ffffff"/>
<rect  x="86" y="595" width="78" height="20" rx="5" ry="5" fill="none" stroke="#000000" stroke-width="1"/>
<text  x="88" y="611" style="font-size:12; font-family:Dialog.plain; fill=#000000">distance = 46</text>
<line  x1="125" y1="615" x2="125" y2="625" stroke="#000000" stroke-width="1" fill="none"/>
<line  x1="125" y1="625" x2="125" y2="635" stroke="#000000" stroke-width="1" fill="none"/>
<rect  x="95" y="635" width="61" height="20" rx="5" ry="5" fill="#c1daf1"/>
<rect  x="95" y="635" width="61" height="20" rx="5" ry="5" fill="none" stroke="#000000" stroke-width="1"/>
<text  x="97" y="651" style="font-size:12; font-family:Dialog.plain; fill=#000000">choice__0</text>
<line  x1="125" y1="655" x2="125" y2="665" stroke="#000000" stroke-width="1" fill="none"/>
<rect  x="96" y="665" width="59" height="20" rx="5" ry="5" fill="#ffffff"/>
<rect  x="96" y="665" width="59" height="20" rx="5" ry="5" fill="none" stroke="#000000" stroke-width="1"/>
<text  x="98" y="681" style="font-size:12; font-family:Dialog.plain; fill=#7710f3">speed = 0</text>
<line  x1="125" y1="685" x2="125" y2="695" stroke="#000000" stroke-width="1" fill="none"/>
<line  x1="125" y1="695" x2="125" y2="705" stroke="#000000" stroke-width="1" fill="none"/>
<rect  x="104" y="705" width="43" height="20" rx="5" ry="5" fill="#c1daf1"/>
<rect  x="104" y="705" width="43" height="20" rx="5" ry="5" fill="none" stroke="#000000" stroke-width="1"/>
<text  x="106" y="721" style="font-size:12; font-family:Dialog.plain; fill=#000000">waiting</text>
<line  x1="125" y1="725" x2="125" y2="735" stroke="#000000" stroke-width="1" fill="none"/>
<line  x1="125" y1="735" x2="125" y2="745" stroke="#000000" stroke-width="1" fill="none"/>
<rect  x="86" y="745" width="78" height="20" rx="5" ry="5" fill="#ffffff"/>
<rect  x="86" y="745" width="78" height="20" rx="5" ry="5" fill="none" stroke="#000000" stroke-width="1"/>
<text  x="88" y="761" style="font-size:12; font-family:Dialog.plain; fill=#000000">distance = 52</text>
<line  x1="125" y1="765" x2="125" y2="775" stroke="#000000" stroke-width="1" fill="none"/>
<line  x1="125" y1="775" x2="125" y2="785" stroke="#000000" stroke-width="1" fill="none"/>
<rect  x="95" y="785" width="61" height="20" rx="5" ry="5" fill="#c1daf1"/>
<rect  x="95" y="785" width="61" height="20" rx="5" ry="5" fill="none" stroke="#000000" stroke-width="1"/>
<text  x="97" y="801" style="font-size:12; font-family:Dialog.plain; fill=#000000">choice__1</text>
<line  x1="125" y1="805" x2="125" y2="815" stroke="#000000" stroke-width="1" fill="none"/>
<rect  x="92" y="815" width="66" height="20" rx="5" ry="5" fill="#ffffff"/>
<rect  x="92" y="815" width="66" height="20" rx="5" ry="5" fill="none" stroke="#000000" stroke-width="1"/>
<text  x="94" y="831" style="font-size:12; font-family:Dialog.plain; fill=#7710f3">speed = 30</text>
<line  x1="125" y1="835" x2="125" y2="845" stroke="#000000" stroke-width="1" fill="none"/>
<line  x1="125" y1="845" x2="125" y2="855" stroke="#000000" stroke-width="1" fill="none"/>
<rect  x="104" y="855" width="42" height="20" rx="5" ry="5" fill="#c1daf1"/>
<rect  x="104" y="855" width="42" height="20" rx="5" ry="5" fill="none" stroke="#000000" stroke-width="1"/>
<text  x="106" y="871" style="font-size:12; font-family:Dialog.plain; fill=#000000">Driving</text>
<line  x1="125" y1="875" x2="125" y2="885" stroke="#000000" stroke-width="1" fill="none"/>
<line  x1="125" y1="885" x2="125" y2="895" stroke="#000000" stroke-width="1" fill="none"/>
<rect  x="86" y="895" width="78" height="20" rx="5" ry="5" fill="#ffffff"/>
<rect  x="86" y="895" width="78" height="20" rx="5" ry="5" fill="none" stroke="#000000" stroke-width="1"/>
<text  x="88" y="911" style="font-size:12; font-family:Dialog.plain; fill=#000000">distance = 55</text>
<line  x1="125" y1="915" x2="125" y2="925" stroke="#000000" stroke-width="1" fill="none"/>
<line  x1="125" y1="925" x2="125" y2="935" stroke="#000000" stroke-width="1" fill="none"/>
<rect  x="95" y="935" width="61" height="20" rx="5" ry="5" fill="#c1daf1"/>
<rect  x="95" y="935" width="61" height="20" rx="5" ry="5" fill="none" stroke="#000000" stroke-width="1"/>
<text  x="97" y="951" style="font-size:12; font-family:Dialog.plain; fill=#000000">choice__0</text>
<line  x1="125" y1="955" x2="125" y2="965" stroke="#000000" stroke-width="1" fill="none"/>
<rect  x="92" y="965" width="66" height="20" rx="5" ry="5" fill="#ffffff"/>
<rect  x="92" y="965" width="66" height="20" rx="5" ry="5" fill="none" stroke="#000000" stroke-width="1"/>
<text  x="94" y="981" style="font-size:12; font-family:Dialog.plain; fill=#7710f3">speed = 30</text>
<line  x1="125" y1="985" x2="125" y2="995" stroke="#000000" stroke-width="1" fill="none"/>
<line  x1="125" y1="995" x2="125" y2="1005" stroke="#000000" stroke-width="1" fill="none"/>
<rect  x="104" y="1005" width="42" height="20" rx="5" ry="5" fill="#c1daf1"/>
<rect  x="104" y="1005" width="42" height="20" rx="5" ry="5" fill="none" stroke="#000000" stroke-width="1"/>
<text  x="106" y="1021" style="font-size:12; font-family:Dialog.plain; fill=#000000">Driving</text>
<line  x1="125" y1="1025" x2="125" y2="1035" stroke="#000000" stroke-width="1" fill="none"/>
<line  x1="125" y1="1035" x2="125" y2="1045" stroke="#000000" stroke-width="1" fill="none"/>
<rect  x="86" y="1045" width="78" height="20" rx="5" ry="5" fill="#ffffff"/>
<rect  x="86" y="1045" width="78" height="20" rx="5" ry="5" fill="none" stroke="#000000" stroke-width="1"/>
<text  x="88" y="1061" style="font-size:12; font-family:Dialog.plain; fill=#000000">distance = 49</text>
<line  x1="125" y1="1065" x2="125" y2="1075" stroke="#000000" stroke-width="1" fill="none"/>
<line  x1="125" y1="1075" x2="125" y2="1085" stroke="#000000" stroke-width="1" fill="none"/>
<rect  x="95" y="1085" width="61" height="20" rx="5" ry="5" fill="#c1daf1"/>
<rect  x="95" y="1085" width="61" height="20" rx="5" ry="5" fill="none" stroke="#000000" stroke-width="1"/>
<text  x="97" y="1101" style="font-size:12; font-family:Dialog.plain; fill=#000000">choice__0</text>
<line  x1="125" y1="1105" x2="125" y2="1115" stroke="#000000" stroke-width="1" fill="none"/>
<ellipse  cx="156" cy="1085" rx="3" ry="3" fill="#ffb469"/>
<line  x1="156" y1="1085" x2="162" y2="1079" stroke="#ffb469" stroke-width="1" fill="none"/>
<line  x1="162" y1="1079" x2="168" y2="1079" stroke="#ffb469" stroke-width="1" fill="none"/>
<text  x="169" y="1079" style="font-size:12; font-family:Dialog.plain; fill=#ffb469">2994</text>
<rect  x="96" y="1115" width="59" height="20" rx="5" ry="5" fill="#ffffff"/>
<rect  x="96" y="1115" width="59" height="20" rx="5" ry="5" fill="none" stroke="#000000" stroke-width="1"/>
<text  x="98" y="1131" style="font-size:12; font-family:Dialog.plain; fill=#7710f3">speed = 0</text>
<line  x1="125" y1="1135" x2="125" y2="1145" stroke="#000000" stroke-width="1" fill="none"/>
<line  x1="125" y1="1145" x2="125" y2="1155" stroke="#000000" stroke-width="1" fill="none"/>
<rect  x="104" y="1155" width="43" height="20" rx="5" ry="5" fill="#c1daf1"/>
<rect  x="104" y="1155" width="43" height="20" rx="5" ry="5" fill="none" stroke="#000000" stroke-width="1"/>
<text  x="106" y="1171" style="font-size:12; font-family:Dialog.plain; fill=#000000">waiting</text>
<line  x1="125" y1="1175" x2="125" y2="1185" stroke="#000000" stroke-width="1" fill="none"/>
<line  x1="125" y1="1185" x2="125" y2="1195" stroke="#000000" stroke-width="1" fill="none"/>
<rect  x="86" y="1195" width="78" height="20" rx="5" ry="5" fill="#ffffff"/>
<rect  x="86" y="1195" width="78" height="20" rx="5" ry="5" fill="none" stroke="#000000" stroke-width="1"/>
<text  x="88" y="1211" style="font-size:12; font-family:Dialog.plain; fill=#000000">distance = 45</text>
<line  x1="125" y1="1215" x2="125" y2="1225" stroke="#000000" stroke-width="1" fill="none"/>
<line  x1="125" y1="1225" x2="125" y2="1235" stroke="#000000" stroke-width="1" fill="none"/>
<rect  x="95" y="1235" width="61" height="20" rx="5" ry="5" fill="#c1daf1"/>
<rect  x="95" y="1235" width="61" height="20" rx="5" ry="5" fill="none" stroke="#000000" stroke-width="1"/>
<text  x="97" y="1251" style="font-size:12; font-family:Dialog.plain; fill=#000000">choice__1</text>
<line  x1="125" y1="1255" x2="125" y2="1265" stroke="#000000" stroke-width="1" fill="none"/>
<rect  x="96" y="1265" width="59" height="20" rx="5" ry="5" fill="#ffffff"/>
<rect  x="96" y="1265" width="59" height="20" rx="5" ry="5" fill="none" stroke="#000000" stroke-width="1"/>
<text  x="98" y="1281" style="font-size:12; font-family:Dialog.plain; fill=#7710f3">speed = 0</text>
<line  x1="125" y1="1285" x2="125" y2="1295" stroke="#000000" stroke-width="1" fill="none"/>
<line  x1="125" y1="1295" x2="125" y2="1305" stroke="#000000" stroke-width="1" fill="none"/>
<rect  x="104" y="1305" width="43" height="20" rx="5" ry="5" fill="#c1daf1"/>
<rect  x="104" y="1305" width="43" height="20" rx="5" ry="5" fill="none" stroke="#000000" stroke-width="1"/>
<text  x="106" y="1321" style="font-size:12; font-family:Dialog.plain; fill=#000000">waiting</text>
<line  x1="125" y1="1325" x2="125" y2="1335" stroke="#000000" stroke-width="1" fill="none"/>
<text  x="10" y="1120" style="font-size:12; font-family:Dialog.plain; fill=#7710f3">@0</text>
<text  x="751" y="1120" style="font-size:12; font-family:Dialog.plain; fill=#7710f3">@0</text>
<text  x="117" y="1110" style="font-size:12; font-family:Dialog.plain; fill=#7710f3">CA</text>
<text  x="96" y="1124" style="font-size:12; font-family:Dialog.italic; font-style=italic; fill=#7710f3">choice__0</text>
</svg>