<?xml version="1.0" standalone="no"?>
<!DOCTYPE svg PUBLIC "-//W3C//DTD SVG 1.1//EN" "http://www.w3.org/Graphics/SVG/1.1/DTD/svg11.dtd">
<svg xmlns="http://www.w3.org/2000/svg" version="1.1">
<line  x1="87" y1="50" x2="162" y2="50" stroke="#000000" stroke-width="1" fill="none"/>
<line  x1="125" y1="50" x2="125" y2="65" stroke="#000000" stroke-width="1" fill="none"/>
<text  x="93" y="48" style="font-size:12; font-family:Dialog.plain; fill=#000000">US_Sensor</text>
<line  x1="237" y1="50" x2="312" y2="50" stroke="#000000" stroke-width="1" fill="none"/>
<line  x1="275" y1="50" x2="275" y2="65" stroke="#000000" stroke-width="1" fill="none"/>
<text  x="267" y="48" style="font-size:12; font-family:Dialog.plain; fill=#000000">CA</text>
<line  x1="387" y1="50" x2="462" y2="50" stroke="#000000" stroke-width="1" fill="none"/>
<line  x1="425" y1="50" x2="425" y2="65" stroke="#000000" stroke-width="1" fill="none"/>
<text  x="397" y="48" style="font-size:12; font-family:Dialog.plain; fill=#000000">DC_Motor</text>
<text  x="10" y="73" style="font-size:12; font-family:Dialog.plain; fill=#000000">@0</text>
<line  x1="275" y1="74" x2="425" y2="74" stroke="#80b4cd" stroke-width="1" fill="none"/>
<line  x1="275" y1="75" x2="425" y2="75" stroke="#000000" stroke-width="1" fill="none"/>
<polygon  points="425,75 416,79 416,70 " fill="#000000"/>
<polygon  points="425,75 416,79 416,70 " fill="none" stroke="#000000" stroke-width="1"/>
<text  x="286" y="73" style="font-size:12; font-family:Dialog.plain; fill=#000000">setSpeed_getSpeed(0)</text>
<line  x1="425" y1="65" x2="425" y2="85" stroke="#000000" stroke-width="1" fill="none"/>
<line  x1="125" y1="65" x2="125" y2="85" stroke="#000000" stroke-width="1" fill="none"/>
<line  x1="275" y1="65" x2="275" y2="85" stroke="#000000" stroke-width="1" fill="none"/>
<line  x1="425" y1="85" x2="425" y2="95" stroke="#000000" stroke-width="1" fill="none"/>
<rect  x="410" y="95" width="30" height="20" rx="5" ry="5" fill="#c1daf1"/>
<rect  x="410" y="95" width="30" height="20" rx="5" ry="5" fill="none" stroke="#000000" stroke-width="1"/>
<text  x="412" y="111" style="font-size:12; font-family:Dialog.plain; fill=#000000">busy</text>
<line  x1="425" y1="115" x2="425" y2="125" stroke="#000000" stroke-width="1" fill="none"/>
<line  x1="125" y1="85" x2="125" y2="125" stroke="#000000" stroke-width="1" fill="none"/>
<line  x1="275" y1="85" x2="275" y2="125" stroke="#000000" stroke-width="1" fill="none"/>
<line  x1="425" y1="125" x2="425" y2="135" stroke="#000000" stroke-width="1" fill="none"/>
<rect  x="413" y="135" width="24" height="20" rx="5" ry="5" fill="#c1daf1"/>
<rect  x="413" y="135" width="24" height="20" rx="5" ry="5" fill="none" stroke="#000000" stroke-width="1"/>
<text  x="415" y="151" style="font-size:12; font-family:Dialog.plain; fill=#000000">idle</text>
<line  x1="425" y1="155" x2="425" y2="165" stroke="#000000" stroke-width="1" fill="none"/>
<line  x1="125" y1="125" x2="125" y2="165" stroke="#000000" stroke-width="1" fill="none"/>
<line  x1="275" y1="125" x2="275" y2="165" stroke="#000000" stroke-width="1" fill="none"/>
<line  x1="125" y1="165" x2="125" y2="175" stroke="#000000" stroke-width="1" fill="none"/>
<rect  x="86" y="175" width="78" height="20" rx="5" ry="5" fill="#ffffff"/>
<rect  x="86" y="175" width="78" height="20" rx="5" ry="5" fill="none" stroke="#000000" stroke-width="1"/>
<text  x="88" y="191" style="font-size:12; font-family:Dialog.plain; fill=#000000">distance = 51</text>
<line  x1="125" y1="195" x2="125" y2="205" stroke="#000000" stroke-width="1" fill="none"/>
<line  x1="275" y1="165" x2="275" y2="205" stroke="#000000" stroke-width="1" fill="none"/>
<line  x1="425" y1="165" x2="425" y2="205" stroke="#000000" stroke-width="1" fill="none"/>
<line  x1="125" y1="214" x2="275" y2="214" stroke="#80b4cd" stroke-width="1" fill="none"/>
<line  x1="125" y1="215" x2="275" y2="215" stroke="#000000" stroke-width="1" fill="none"/>
<polygon  points="275,215 266,219 266,210 " fill="#000000"/>
<polygon  points="275,215 266,219 266,210 " fill="none" stroke="#000000" stroke-width="1"/>
<text  x="120" y="213" style="font-size:12; font-family:Dialog.plain; fill=#000000">setDistance_getDistance(51)</text>
<line  x1="275" y1="205" x2="275" y2="225" stroke="#000000" stroke-width="1" fill="none"/>
<line  x1="125" y1="205" x2="125" y2="225" stroke="#000000" stroke-width="1" fill="none"/>
<line  x1="425" y1="205" x2="425" y2="225" stroke="#000000" stroke-width="1" fill="none"/>
<line  x1="275" y1="225" x2="275" y2="235" stroke="#000000" stroke-width="1" fill="none"/>
<rect  x="245" y="235" width="61" height="20" rx="5" ry="5" fill="#c1daf1"/>
<rect  x="245" y="235" width="61" height="20" rx="5" ry="5" fill="none" stroke="#000000" stroke-width="1"/>
<text  x="247" y="251" style="font-size:12; font-family:Dialog.plain; fill=#000000">choice__1</text>
<line  x1="275" y1="255" x2="275" y2="265" stroke="#000000" stroke-width="1" fill="none"/>
<line  x1="125" y1="225" x2="125" y2="265" stroke="#000000" stroke-width="1" fill="none"/>
<line  x1="425" y1="225" x2="425" y2="265" stroke="#000000" stroke-width="1" fill="none"/>
<line  x1="125" y1="265" x2="125" y2="275" stroke="#000000" stroke-width="1" fill="none"/>
<rect  x="102" y="275" width="46" height="20" rx="5" ry="5" fill="#c1daf1"/>
<rect  x="102" y="275" width="46" height="20" rx="5" ry="5" fill="none" stroke="#000000" stroke-width="1"/>
<text  x="104" y="291" style="font-size:12; font-family:Dialog.plain; fill=#000000">reading</text>
<line  x1="125" y1="295" x2="125" y2="305" stroke="#000000" stroke-width="1" fill="none"/>
<line  x1="275" y1="265" x2="275" y2="305" stroke="#000000" stroke-width="1" fill="none"/>
<line  x1="425" y1="265" x2="425" y2="305" stroke="#000000" stroke-width="1" fill="none"/>
<line  x1="125" y1="305" x2="125" y2="315" stroke="#000000" stroke-width="1" fill="none"/>
<rect  x="86" y="315" width="78" height="20" rx="5" ry="5" fill="#ffffff"/>
<rect  x="86" y="315" width="78" height="20" rx="5" ry="5" fill="none" stroke="#000000" stroke-width="1"/>
<text  x="88" y="331" style="font-size:12; font-family:Dialog.plain; fill=#000000">distance = 50</text>
<line  x1="125" y1="335" x2="125" y2="345" stroke="#000000" stroke-width="1" fill="none"/>
<line  x1="275" y1="305" x2="275" y2="345" stroke="#000000" stroke-width="1" fill="none"/>
<line  x1="425" y1="305" x2="425" y2="345" stroke="#000000" stroke-width="1" fill="none"/>
<rect  x="242" y="345" width="66" height="20" rx="5" ry="5" fill="#ffffff"/>
<rect  x="242" y="345" width="66" height="20" rx="5" ry="5" fill="none" stroke="#000000" stroke-width="1"/>
<text  x="244" y="361" style="font-size:12; font-family:Dialog.plain; fill=#7710f3">speed = 30</text>
<line  x1="275" y1="365" x2="275" y2="375" stroke="#000000" stroke-width="1" fill="none"/>
<line  x1="125" y1="345" x2="125" y2="375" stroke="#000000" stroke-width="1" fill="none"/>
<line  x1="425" y1="345" x2="425" y2="375" stroke="#000000" stroke-width="1" fill="none"/>
<line  x1="275" y1="375" x2="275" y2="385" stroke="#000000" stroke-width="1" fill="none"/>
<rect  x="255" y="385" width="40" height="20" rx="5" ry="5" fill="#c1daf1"/>
<rect  x="255" y="385" width="40" height="20" rx="5" ry="5" fill="none" stroke="#000000" stroke-width="1"/>
<text  x="257" y="401" style="font-size:12; font-family:Dialog.plain; fill=#000000">driving</text>
<line  x1="275" y1="405" x2="275" y2="415" stroke="#000000" stroke-width="1" fill="none"/>
<line  x1="125" y1="375" x2="125" y2="415" stroke="#000000" stroke-width="1" fill="none"/>
<line  x1="425" y1="375" x2="425" y2="415" stroke="#000000" stroke-width="1" fill="none"/>
<line  x1="275" y1="424" x2="425" y2="424" stroke="#80b4cd" stroke-width="1" fill="none"/>
<line  x1="275" y1="425" x2="425" y2="425" stroke="#000000" stroke-width="1" fill="none"/>
<polygon  points="425,425 416,429 416,420 " fill="#000000"/>
<polygon  points="425,425 416,429 416,420 " fill="none" stroke="#000000" stroke-width="1"/>
<text  x="283" y="423" style="font-size:12; font-family:Dialog.plain; fill=#000000">setSpeed_getSpeed(30)</text>
<line  x1="425" y1="415" x2="425" y2="435" stroke="#000000" stroke-width="1" fill="none"/>
<line  x1="125" y1="415" x2="125" y2="435" stroke="#000000" stroke-width="1" fill="none"/>
<line  x1="275" y1="415" x2="275" y2="435" stroke="#000000" stroke-width="1" fill="none"/>
<line  x1="425" y1="435" x2="425" y2="445" stroke="#000000" stroke-width="1" fill="none"/>
<rect  x="410" y="445" width="30" height="20" rx="5" ry="5" fill="#c1daf1"/>
<rect  x="410" y="445" width="30" height="20" rx="5" ry="5" fill="none" stroke="#000000" stroke-width="1"/>
<text  x="412" y="461" style="font-size:12; font-family:Dialog.plain; fill=#000000">busy</text>
<line  x1="425" y1="465" x2="425" y2="475" stroke="#000000" stroke-width="1" fill="none"/>
<line  x1="125" y1="435" x2="125" y2="475" stroke="#000000" stroke-width="1" fill="none"/>
<line  x1="275" y1="435" x2="275" y2="475" stroke="#000000" stroke-width="1" fill="none"/>
<line  x1="425" y1="475" x2="425" y2="485" stroke="#000000" stroke-width="1" fill="none"/>
<rect  x="413" y="485" width="24" height="20" rx="5" ry="5" fill="#c1daf1"/>
<rect  x="413" y="485" width="24" height="20" rx="5" ry="5" fill="none" stroke="#000000" stroke-width="1"/>
<text  x="415" y="501" style="font-size:12; font-family:Dialog.plain; fill=#000000">idle</text>
<line  x1="425" y1="505" x2="425" y2="515" stroke="#000000" stroke-width="1" fill="none"/>
<line  x1="125" y1="475" x2="125" y2="515" stroke="#000000" stroke-width="1" fill="none"/>
<line  x1="275" y1="475" x2="275" y2="515" stroke="#000000" stroke-width="1" fill="none"/>
<line  x1="125" y1="524" x2="275" y2="524" stroke="#80b4cd" stroke-width="1" fill="none"/>
<line  x1="125" y1="525" x2="275" y2="525" stroke="#000000" stroke-width="1" fill="none"/>
<polygon  points="275,525 266,529 266,520 " fill="#000000"/>
<polygon  points="275,525 266,529 266,520 " fill="none" stroke="#000000" stroke-width="1"/>
<text  x="120" y="523" style="font-size:12; font-family:Dialog.plain; fill=#000000">setDistance_getDistance(50)</text>
<line  x1="275" y1="515" x2="275" y2="535" stroke="#000000" stroke-width="1" fill="none"/>
<line  x1="125" y1="515" x2="125" y2="535" stroke="#000000" stroke-width="1" fill="none"/>
<line  x1="425" y1="515" x2="425" y2="535" stroke="#000000" stroke-width="1" fill="none"/>
<line  x1="275" y1="535" x2="275" y2="545" stroke="#000000" stroke-width="1" fill="none"/>
<rect  x="245" y="545" width="61" height="20" rx="5" ry="5" fill="#c1daf1"/>
<rect  x="245" y="545" width="61" height="20" rx="5" ry="5" fill="none" stroke="#000000" stroke-width="1"/>
<text  x="247" y="561" style="font-size:12; font-family:Dialog.plain; fill=#000000">choice__0</text>
<line  x1="275" y1="565" x2="275" y2="575" stroke="#000000" stroke-width="1" fill="none"/>
<ellipse  cx="306" cy="545" rx="3" ry="3" fill="#ffb469"/>
<line  x1="306" y1="545" x2="312" y2="539" stroke="#ffb469" stroke-width="1" fill="none"/>
<line  x1="312" y1="539" x2="318" y2="539" stroke="#ffb469" stroke-width="1" fill="none"/>
<text  x="319" y="539" style="font-size:12; font-family:Dialog.plain; fill=#ffb469">69</text>
<line  x1="125" y1="535" x2="125" y2="575" stroke="#000000" stroke-width="1" fill="none"/>
<line  x1="425" y1="535" x2="425" y2="575" stroke="#000000" stroke-width="1" fill="none"/>
<line  x1="125" y1="575" x2="125" y2="585" stroke="#000000" stroke-width="1" fill="none"/>
<rect  x="102" y="585" width="46" height="20" rx="5" ry="5" fill="#c1daf1"/>
<rect  x="102" y="585" width="46" height="20" rx="5" ry="5" fill="none" stroke="#000000" stroke-width="1"/>
<text  x="104" y="601" style="font-size:12; font-family:Dialog.plain; fill=#000000">reading</text>
<line  x1="125" y1="605" x2="125" y2="615" stroke="#000000" stroke-width="1" fill="none"/>
<line  x1="275" y1="575" x2="275" y2="615" stroke="#000000" stroke-width="1" fill="none"/>
<line  x1="425" y1="575" x2="425" y2="615" stroke="#000000" stroke-width="1" fill="none"/>
<rect  x="246" y="615" width="59" height="20" rx="5" ry="5" fill="#ffffff"/>
<rect  x="246" y="615" width="59" height="20" rx="5" ry="5" fill="none" stroke="#000000" stroke-width="1"/>
<text  x="248" y="631" style="font-size:12; font-family:Dialog.plain; fill=#7710f3">speed = 0</text>
<line  x1="275" y1="635" x2="275" y2="645" stroke="#000000" stroke-width="1" fill="none"/>
<line  x1="125" y1="615" x2="125" y2="645" stroke="#000000" stroke-width="1" fill="none"/>
<line  x1="425" y1="615" x2="425" y2="645" stroke="#000000" stroke-width="1" fill="none"/>
<line  x1="275" y1="645" x2="275" y2="655" stroke="#000000" stroke-width="1" fill="none"/>
<rect  x="254" y="655" width="43" height="20" rx="5" ry="5" fill="#c1daf1"/>
<rect  x="254" y="655" width="43" height="20" rx="5" ry="5" fill="none" stroke="#000000" stroke-width="1"/>
<text  x="256" y="671" style="font-size:12; font-family:Dialog.plain; fill=#000000">waiting</text>
<line  x1="275" y1="675" x2="275" y2="685" stroke="#000000" stroke-width="1" fill="none"/>
<line  x1="125" y1="645" x2="125" y2="685" stroke="#000000" stroke-width="1" fill="none"/>
<line  x1="425" y1="645" x2="425" y2="685" stroke="#000000" stroke-width="1" fill="none"/>
<line  x1="125" y1="685" x2="125" y2="695" stroke="#000000" stroke-width="1" fill="none"/>
<rect  x="86" y="695" width="78" height="20" rx="5" ry="5" fill="#ffffff"/>
<rect  x="86" y="695" width="78" height="20" rx="5" ry="5" fill="none" stroke="#000000" stroke-width="1"/>
<text  x="88" y="711" style="font-size:12; font-family:Dialog.plain; fill=#000000">distance = 46</text>
<line  x1="125" y1="715" x2="125" y2="725" stroke="#000000" stroke-width="1" fill="none"/>
<line  x1="275" y1="685" x2="275" y2="725" stroke="#000000" stroke-width="1" fill="none"/>
<line  x1="425" y1="685" x2="425" y2="725" stroke="#000000" stroke-width="1" fill="none"/>
<line  x1="275" y1="734" x2="425" y2="734" stroke="#80b4cd" stroke-width="1" fill="none"/>
<line  x1="275" y1="735" x2="425" y2="735" stroke="#000000" stroke-width="1" fill="none"/>
<polygon  points="425,735 416,739 416,730 " fill="#000000"/>
<polygon  points="425,735 416,739 416,730 " fill="none" stroke="#000000" stroke-width="1"/>
<text  x="286" y="733" style="font-size:12; font-family:Dialog.plain; fill=#000000">setSpeed_getSpeed(0)</text>
<line  x1="425" y1="725" x2="425" y2="745" stroke="#000000" stroke-width="1" fill="none"/>
<line  x1="125" y1="725" x2="125" y2="745" stroke="#000000" stroke-width="1" fill="none"/>
<line  x1="275" y1="725" x2="275" y2="745" stroke="#000000" stroke-width="1" fill="none"/>
<line  x1="425" y1="745" x2="425" y2="755" stroke="#000000" stroke-width="1" fill="none"/>
<rect  x="410" y="755" width="30" height="20" rx="5" ry="5" fill="#c1daf1"/>
<rect  x="410" y="755" width="30" height="20" rx="5" ry="5" fill="none" stroke="#000000" stroke-width="1"/>
<text  x="412" y="771" style="font-size:12; font-family:Dialog.plain; fill=#000000">busy</text>
<line  x1="425" y1="775" x2="425" y2="785" stroke="#000000" stroke-width="1" fill="none"/>
<line  x1="125" y1="745" x2="125" y2="785" stroke="#000000" stroke-width="1" fill="none"/>
<line  x1="275" y1="745" x2="275" y2="785" stroke="#000000" stroke-width="1" fill="none"/>
<line  x1="425" y1="785" x2="425" y2="795" stroke="#000000" stroke-width="1" fill="none"/>
<rect  x="413" y="795" width="24" height="20" rx="5" ry="5" fill="#c1daf1"/>
<rect  x="413" y="795" width="24" height="20" rx="5" ry="5" fill="none" stroke="#000000" stroke-width="1"/>
<text  x="415" y="811" style="font-size:12; font-family:Dialog.plain; fill=#000000">idle</text>
<line  x1="425" y1="815" x2="425" y2="825" stroke="#000000" stroke-width="1" fill="none"/>
<line  x1="125" y1="785" x2="125" y2="825" stroke="#000000" stroke-width="1" fill="none"/>
<line  x1="275" y1="785" x2="275" y2="825" stroke="#000000" stroke-width="1" fill="none"/>
<text  x="10" y="571" style="font-size:12; font-family:Dialog.plain; fill=#7710f3">@0</text>
<text  x="751" y="571" style="font-size:12; font-family:Dialog.plain; fill=#7710f3">@0</text>
<text  x="93" y="561" style="font-size:12; font-family:Dialog.plain; fill=#7710f3">US_Sensor</text>
<text  x="104" y="575" style="font-size:12; font-family:Dialog.italic; font-style=italic; fill=#7710f3">reading</text>
<text  x="267" y="561" style="font-size:12; font-family:Dialog.plain; fill=#7710f3">CA</text>
<text  x="246" y="575" style="font-size:12; font-family:Dialog.italic; font-style=italic; fill=#7710f3">choice__0</text>
<text  x="397" y="561" style="font-size:12; font-family:Dialog.plain; fill=#7710f3">DC_Motor</text>
<text  x="415" y="575" style="font-size:12; font-family:Dialog.italic; font-style=italic; fill=#7710f3">idle</text>
</svg>